<?xml version="1.0" encoding="utf-8"?>
<!-- Generator: Adobe Illustrator 24.0.0, SVG Export Plug-In . SVG Version: 6.00 Build 0)  -->
<svg version="1.1" id="Layer_1" xmlns="http://www.w3.org/2000/svg" xmlns:xlink="http://www.w3.org/1999/xlink" x="0px" y="0px"
	 viewBox="0 0 64 64" style="enable-background:new 0 0 64 64;" xml:space="preserve">
<style type="text/css">
	.st0{fill:#746C34;}
</style>
<g id="_x31_1">
	<path class="st0" d="M55.3,5.4H38.8V1.1c0-0.6-0.5-1.1-1.1-1.1H26.3c-0.6,0-1.1,0.5-1.1,1.1v4.3H8.7c-2.6,0-4.7,2.1-4.7,4.7v3.2
		c0,0.6,0.5,1.1,1.1,1.1h2.9l3.2,43.6c0.3,3.4,3.2,6.1,6.6,6.1H46c3.4,0,6.3-2.7,6.6-6.1l3.2-43.6h2.9c0.6,0,1.1-0.5,1.1-1.1V10
		C59.9,7.5,57.8,5.4,55.3,5.4z M27.3,2.1h9.3v3.2h-9.3V2.1z M50.5,57.7c-0.2,2.3-2.1,4.1-4.5,4.1H18c-2.3,0-4.3-1.8-4.5-4.1
		l-3.2-43.4h43.5L50.5,57.7z M57.8,12.1H6.2V10c0-1.4,1.1-2.5,2.5-2.5h17.5h11.5h17.5c1.4,0,2.5,1.1,2.5,2.5V12.1z M42.2,37.8
		l1.5,2.7c0.8,1.3,0.8,2.9,0,4.2s-2.1,2.1-3.7,2.1h-6.2l2.2,2.4l-1.6,1.4L30,45.8l4.1-5.3l1.7,1.3l-2.2,2.9H40c0.8,0,1.4-0.4,1.8-1
		c0.4-0.7,0.4-1.4,0-2.1l-1.5-2.8L42.2,37.8z M20.8,40.5l3.6-6.2l-3.2,0.6l-0.4-2.1l6.5-1.3l2,6.5l-2.1,0.6l-1-3.2l-3.5,6.1
		c-0.4,0.7-0.4,1.4,0,2.1c0.4,0.7,1.1,1,1.8,1h3.3v2.1h-3.3c-1.5,0-2.9-0.8-3.7-2.1C20,43.4,20,41.8,20.8,40.5z M29.2,30.2l-1.8-1.1
		l1.2-2.1c0.8-1.3,2.1-2.1,3.7-2.1c0,0,0,0,0,0c1.5,0,2.9,0.8,3.7,2.1l3.2,5.6l1.1-3.3l2,0.7l-2.1,6.5l-6.9-1.7l0.5-2.1l3.5,0.9
		L34,28.1c-0.4-0.7-1.1-1-1.8-1s-1.4,0.4-1.8,1L29.2,30.2z"/>
</g>
<g id="Layer_1_1_">
</g>
</svg>
