<?xml version="1.0" encoding="iso-8859-1"?>
<!-- Generator: Adobe Illustrator 22.1.0, SVG Export Plug-In . SVG Version: 6.00 Build 0)  -->
<svg version="1.1" xmlns="http://www.w3.org/2000/svg" xmlns:xlink="http://www.w3.org/1999/xlink" x="0px" y="0px"
	 viewBox="0 0 64 64" style="enable-background:new 0 0 64 64;" xml:space="preserve">
<g id="_x31_4">
	<path style="fill:#3A3A3A;" d="M55.248,22.163h-6.986c-0.435,0-0.787,0.352-0.787,0.787v8.01c0,0.434,0.352,0.787,0.787,0.787
		h11.016c0.273,0,0.527-0.141,0.67-0.374c0.143-0.233,0.156-0.523,0.033-0.766l-4.03-8.01
		C55.818,22.331,55.546,22.163,55.248,22.163z M49.049,30.173v-6.436h5.714l3.238,6.436H49.049z M13.891,39.858
		c-1.683,0-3.053,1.367-3.053,3.048c0,0.094,0.006,0.189,0.014,0.29c0.151,1.572,1.457,2.758,3.039,2.758
		c1.579,0,2.883-1.185,3.035-2.771c0.007-0.088,0.013-0.182,0.013-0.277C16.939,41.225,15.572,39.858,13.891,39.858z M15.358,43.045
		c-0.073,0.761-0.704,1.335-1.467,1.335c-0.766,0-1.399-0.574-1.471-1.321c-0.004-0.049-0.008-0.1-0.008-0.153
		c0-0.813,0.664-1.474,1.479-1.474c0.813,0,1.474,0.661,1.474,1.474C15.365,42.958,15.361,43.01,15.358,43.045z M24.992,39.858
		c-1.681,0-3.048,1.367-3.048,3.048c0,0.093,0.006,0.187,0.014,0.29c0.151,1.572,1.455,2.758,3.034,2.758
		c1.582,0,2.888-1.185,3.04-2.771c0.007-0.088,0.013-0.182,0.013-0.277C28.045,41.225,26.675,39.858,24.992,39.858z M26.464,43.045
		c-0.073,0.761-0.706,1.335-1.472,1.335c-0.764,0-1.394-0.574-1.466-1.318c-0.004-0.05-0.008-0.102-0.008-0.156
		c0-0.813,0.661-1.474,1.474-1.474c0.816,0,1.479,0.661,1.479,1.474C26.471,42.958,26.466,43.01,26.464,43.045z M52.889,39.858
		c-1.681,0-3.048,1.367-3.048,3.048c0,0.094,0.006,0.189,0.014,0.29c0.151,1.572,1.455,2.758,3.034,2.758
		c1.582,0,2.888-1.185,3.04-2.774c0.007-0.087,0.013-0.18,0.013-0.274C55.942,41.225,54.573,39.858,52.889,39.858z M54.362,43.045
		c-0.073,0.761-0.706,1.335-1.472,1.335c-0.764,0-1.394-0.574-1.466-1.321c-0.004-0.049-0.008-0.1-0.008-0.153
		c0-0.813,0.661-1.474,1.474-1.474c0.816,0,1.479,0.661,1.479,1.474C54.369,42.959,54.364,43.012,54.362,43.045z M52.889,37.618
		c-2.916,0-5.288,2.372-5.288,5.288c0,0.093,0.001,0.187,0.006,0.251c0.13,2.824,2.451,5.037,5.282,5.037s5.151-2.213,5.28-5.014
		c0.007-0.087,0.007-0.18,0.007-0.274C58.177,39.99,55.805,37.618,52.889,37.618z M56.599,43.084
		c-0.091,1.983-1.721,3.536-3.71,3.536c-1.989,0-3.618-1.553-3.711-3.558c-0.004-0.05-0.003-0.102-0.003-0.156
		c0-2.048,1.666-3.714,3.714-3.714c2.048,0,3.714,1.666,3.714,3.714C56.603,42.959,56.604,43.012,56.599,43.084z M63.896,31.043
		L57.58,19.994c-0.14-0.245-0.401-0.397-0.683-0.397H46.632v-3.005c0-0.434-0.352-0.787-0.787-0.787H11.31
		c-0.254,0-0.493,0.123-0.64,0.329L0.147,30.866C0.051,30.999,0,31.16,0,31.324l0.016,11.797c0.001,0.434,0.353,0.786,0.787,0.786
		h2.623h5.278c0.467,2.455,2.613,4.286,5.188,4.286c2.58,0,4.73-1.84,5.19-4.286h0.728c0.467,2.455,2.611,4.286,5.182,4.286
		c2.581,0,4.732-1.841,5.19-4.286l16.083,0.001c0,0,0,0,0.001,0c0.219,0,0.428-0.108,0.577-0.268
		c0.149-0.161,0.224-0.393,0.207-0.611l0.003-0.124c0-3.219,2.619-5.837,5.837-5.837s5.837,2.618,5.837,5.837l0.002,0.156
		c-0.017,0.219,0.059,0.434,0.208,0.595c0.149,0.16,0.358,0.252,0.577,0.252c0,0,0.001,0,0.001,0l3.699-0.002
		c0.435,0,0.787-0.352,0.787-0.787V31.433C64,31.296,63.964,31.161,63.896,31.043z M11.261,35.28l7.088-17.9h6.701l-7.088,17.9
		H11.261z M26.743,17.38h6.701l-7.088,17.9h-6.701L26.743,17.38z M35.136,17.38h6.701l-7.088,17.9h-6.701L35.136,17.38z
		 M43.53,17.38h1.528v17.9h-8.616L43.53,17.38z M3.031,42.334H1.589L1.574,31.575L11.715,17.38h4.942l-7.088,17.9H8.687
		c-0.248,0-0.482,0.117-0.631,0.317L3.031,42.334z M17.601,43.084c-0.091,1.983-1.721,3.536-3.71,3.536s-3.618-1.553-3.711-3.561
		c-0.004-0.049-0.003-0.1-0.003-0.153c0-2.048,1.666-3.714,3.714-3.714s3.714,1.666,3.714,3.714
		C17.605,42.959,17.606,43.012,17.601,43.084z M28.701,43.084c-0.091,1.983-1.721,3.536-3.71,3.536
		c-1.986,0-3.613-1.553-3.706-3.558c-0.004-0.05-0.003-0.102-0.003-0.156c0-2.048,1.664-3.714,3.709-3.714
		c2.048,0,3.714,1.666,3.714,3.714C28.706,42.958,28.706,43.01,28.701,43.084z M62.426,42.334l-2.148,0.001
		c-0.293-3.821-3.495-6.839-7.389-6.839s-7.096,3.019-7.389,6.84l-15.253-0.001c-0.286-2.648-2.533-4.716-5.256-4.716
		c-2.72,0-4.964,2.068-5.25,4.716h-0.594c-0.286-2.648-2.533-4.716-5.256-4.716s-4.969,2.068-5.256,4.716H4.994l4.087-5.48h36.763
		c0.435,0,0.787-0.352,0.787-0.787V21.172h9.809l5.986,10.47V42.334z"/>
</g>
<g id="Layer_1">
</g>
</svg>
