<?xml version="1.0" encoding="iso-8859-1"?>
<!-- Generator: Adobe Illustrator 22.1.0, SVG Export Plug-In . SVG Version: 6.00 Build 0)  -->
<svg version="1.1" xmlns="http://www.w3.org/2000/svg" xmlns:xlink="http://www.w3.org/1999/xlink" x="0px" y="0px"
	 viewBox="0 0 64 64" style="enable-background:new 0 0 64 64;" xml:space="preserve">
<g id="_x35_">
	<path style="fill:#3A3A3A;" d="M32,64C15.546,64,2.16,50.614,2.16,34.16c0-16.11,12.832-29.279,28.811-29.823V1.715
		c0-0.691,0.411-1.311,1.048-1.58c0.636-0.268,1.368-0.131,1.863,0.351l7.249,7.063c0.334,0.326,0.518,0.762,0.518,1.228
		c0,0.467-0.184,0.903-0.518,1.228l-7.249,7.063c-0.495,0.483-1.227,0.62-1.864,0.352c-0.637-0.269-1.048-0.889-1.048-1.58v-2.579
		C19.911,13.8,11.078,22.968,11.078,34.16c0,11.536,9.386,20.922,20.922,20.922s20.922-9.386,20.922-20.922
		c0-6.984-3.479-13.486-9.307-17.391l-0.715-0.48l3.608-8.224l1.006,0.614c8.97,5.481,14.326,15.007,14.326,25.48
		C61.84,50.614,48.454,64,32,64z M32,6.377C16.681,6.377,4.218,18.84,4.218,34.16S16.681,61.942,32,61.942
		S59.782,49.479,59.782,34.16c0-9.357-4.593-17.902-12.346-23.088l-1.966,4.481c5.971,4.33,9.51,11.222,9.51,18.607
		c0,12.671-10.309,22.98-22.98,22.98S9.02,46.831,9.02,34.16c0-12.672,10.309-22.981,22.98-22.981h1.029v3.849l6.414-6.25
		l-6.414-6.25v3.849H32z"/>
</g>
<g id="Layer_1">
</g>
</svg>
